<?xml version="1.0" encoding="UTF-8"?><svg id="Layer_1" xmlns="http://www.w3.org/2000/svg" xmlns:xlink="http://www.w3.org/1999/xlink" viewBox="0 0 595.28 595.28"><defs><linearGradient id="New_Gradient_Swatch_1" x1="14.89" y1="580.39" x2="580.39" y2="14.89" gradientUnits="userSpaceOnUse"><stop offset="0" stop-color="#782a86"/><stop offset=".5" stop-color="#db2144"/><stop offset="1" stop-color="#f26831"/></linearGradient></defs><rect width="595.28" height="595.28" rx="50.83" ry="50.83" style="fill:url(#New_Gradient_Swatch_1);"/><path d="M499.26,290.12l-47.06-81.52h.07l-55.46-96.06c-30.75-53.26-107.63-53.26-138.38,0L90.81,402.84c-30.75,53.26,7.69,119.84,69.19,119.84h216.81c30.96,0,56.05-25.09,56.05-56.05h0c0-30.96-25.09-56.05-56.05-56.05h-160.82l111.68-193.44,74.5,129.03c15.48,26.81,49.76,35.99,76.57,20.52h0c26.81-15.48,35.99-49.76,20.52-76.57Z" style="fill:#fff;"/></svg>