<?xml version="1.0" standalone="no"?>
<!DOCTYPE svg PUBLIC "-//W3C//DTD SVG 20010904//EN"
 "http://www.w3.org/TR/2001/REC-SVG-20010904/DTD/svg10.dtd">
<svg version="1.0" xmlns="http://www.w3.org/2000/svg"
 width="512.000000pt" height="512.000000pt" viewBox="0 0 512.000000 512.000000"
 preserveAspectRatio="xMidYMid meet">

<g transform="translate(0.000000,512.000000) scale(0.100000,-0.100000)"
fill="#000000" stroke="none">
<path d="M333 5105 c-167 -45 -288 -170 -322 -333 -8 -38 -11 -664 -11 -2215
0 -2365 -4 -2218 57 -2329 37 -67 121 -143 200 -181 l68 -32 2210 -3 c2004 -2
2214 -1 2265 14 139 40 242 141 290 283 20 60 20 74 20 2211 l0 2150 -218 219
-218 218 -649 6 c-356 4 -1321 7 -2144 6 -1254 0 -1504 -3 -1548 -14z m2632
-620 c143 -30 301 -129 387 -242 61 -79 957 -1634 980 -1702 79 -223 -28 -479
-244 -585 -252 -125 -520 -27 -670 244 -147 265 -596 1032 -604 1031 -5 -1
-76 -118 -158 -259 -517 -893 -786 -1361 -786 -1366 0 -3 314 -6 698 -6 759 0
774 -1 889 -57 70 -34 168 -129 205 -199 144 -271 8 -606 -282 -695 -63 -19
-93 -19 -1110 -17 l-1045 3 -73 27 c-105 38 -176 83 -257 163 -192 188 -258
465 -172 714 16 45 178 337 448 803 232 403 566 983 742 1288 176 305 338 579
361 609 85 112 225 203 370 241 87 23 225 25 321 5z"/>
</g>
</svg>
