<?xml version="1.0" encoding="UTF-8"?>
<svg xmlns="http://www.w3.org/2000/svg" xmlns:xlink="http://www.w3.org/1999/xlink" viewBox="0 0 257.88 49.65">
  <defs>
    <style>
      .cls-1 {
        fill: url(#New_Gradient_Swatch_2);
      }

      .cls-1, .cls-2 {
        stroke-width: 0px;
      }

      .cls-2 {
        fill: #252422;
      }
    </style>
    <linearGradient id="New_Gradient_Swatch_2" data-name="New Gradient Swatch 2" x1="7.04" y1="49.4" x2="44.13" y2="12.31" gradientUnits="userSpaceOnUse">
      <stop offset="0" stop-color="#762e81"/>
      <stop offset=".5" stop-color="#da2946"/>
      <stop offset="1" stop-color="#f16a3d"/>
    </linearGradient>
  </defs>
  <g id="forward">
    <g>
      <path class="cls-2" d="M71.15,6.01c1.41,0,2.87.11,4.38.38v5.74c-.87-.16-1.89-.22-2.65-.22-3.36,0-4.65,1.14-4.65,3.79v.49h6.98v6.44h-6.82v21.87h-7.74v-21.87h-5.09v-6.6h5.09v-1.14c0-5.85,4.06-8.88,10.5-8.88Z"/>
      <path class="cls-2" d="M75.54,30.15c0-8.66,6.5-14.94,15.37-14.94s15.37,6.28,15.37,14.94-6.44,14.94-15.37,14.94-15.37-6.28-15.37-14.94ZM90.91,37.84c4.33,0,7.52-3.25,7.52-7.69s-3.19-7.69-7.52-7.69-7.52,3.25-7.52,7.69,3.19,7.69,7.52,7.69Z"/>
      <path class="cls-2" d="M108.38,15.81h7.2l.27,3.19c1.95-2.38,4.71-3.63,7.85-3.63,1.08,0,2.22.16,3.3.43v7.14c-1.19-.22-2.27-.38-3.3-.38-4.71,0-7.58,2.76-7.58,7.47v14.45h-7.74V15.81Z"/>
      <path class="cls-2" d="M128.93,16.46v-.65h8.06l2.54,8.33,2.98,9.36,6.39-16.13h5.9l6.49,16.18,2.92-9.42,2.54-8.33h8.01v.65l-9.47,28.04h-7.25l-2.87-7.36-3.3-8.93-3.36,8.93-2.92,7.36h-7.14l-9.53-28.04Z"/>
      <path class="cls-2" d="M173.82,30.15c0-8.77,6.12-14.94,14.45-14.94,3.68,0,6.87,1.3,9.31,3.46l.27-2.87h6.71v28.69h-6.71l-.27-2.87c-2.49,2.17-5.74,3.46-9.31,3.46-8.61,0-14.45-6.5-14.45-14.94ZM189.3,37.84c4.38,0,7.58-3.19,7.58-7.69s-3.19-7.69-7.58-7.69-7.63,3.19-7.63,7.69,3.19,7.69,7.63,7.69Z"/>
      <path class="cls-2" d="M208.58,15.81h7.2l.27,3.19c1.95-2.38,4.71-3.63,7.85-3.63,1.08,0,2.22.16,3.3.43v7.14c-1.19-.22-2.27-.38-3.3-.38-4.71,0-7.58,2.76-7.58,7.47v14.45h-7.74V15.81Z"/>
      <path class="cls-2" d="M227.2,30.07c0-8.66,6.01-14.94,14.29-14.94,3.3,0,6.28,1.03,8.66,2.87V6.52h7.74v37.89h-6.71l-.27-2.87c-2.49,2.17-5.74,3.46-9.42,3.46-8.55,0-14.29-6.6-14.29-14.94ZM242.57,37.75c4.44,0,7.63-3.19,7.63-7.69s-3.19-7.69-7.63-7.69-7.58,3.19-7.58,7.69,3.19,7.69,7.58,7.69Z"/>
    </g>
  </g>
  <g id="Polygon_1_copy_2_Image" data-name="Polygon 1 copy 2 Image">
    <path class="cls-1" d="M48.21,25.35l-1.33-2.3h0l-10.32-17.87c-3.33-5.78-11.67-5.78-15,0L3.39,36.66c-3.33,5.78.83,12.99,7.5,12.99h23.51c3.36,0,6.08-2.72,6.08-6.08h0c0-3.36-2.72-6.08-6.08-6.08h-5.75s-7.65,0-7.65,0h-6.08l14.14-24.49,5.8,10.04h0l4.34,7.51c1.42,2.45,4.55,3.29,7,1.88l.13-.08c2.45-1.42,3.29-4.55,1.88-7Z"/>
  </g>
</svg>