<?xml version="1.0" encoding="UTF-8"?>
<svg xmlns="http://www.w3.org/2000/svg" xmlns:xlink="http://www.w3.org/1999/xlink" viewBox="0 0 255.67 49.23">
  <defs>
    <style>
      .cls-1 {
        fill: url(#New_Gradient_Swatch_2);
      }

      .cls-1, .cls-2 {
        stroke-width: 0px;
      }

      .cls-2 {
        fill: #ffffff;
      }
    </style>
    <linearGradient id="New_Gradient_Swatch_2" data-name="New Gradient Swatch 2" x1="4.87" y1="48.98" x2="42.28" y2="11.56" gradientUnits="userSpaceOnUse">
      <stop offset="0" stop-color="#762e81"/>
      <stop offset=".5" stop-color="#da2946"/>
      <stop offset="1" stop-color="#f16a3d"/>
    </linearGradient>
  </defs>
  <g id="Layer_4" data-name="Layer 4">
    <g>
      <path class="cls-2" d="M68.94,5.59c1.41,0,2.87.11,4.38.38v5.74c-.87-.16-1.89-.22-2.65-.22-3.36,0-4.65,1.14-4.65,3.79v.49h6.98v6.44h-6.82v21.87h-7.74v-21.87h-5.09v-6.6h5.09v-1.14c0-5.85,4.06-8.88,10.5-8.88Z"/>
      <path class="cls-2" d="M73.32,29.73c0-8.66,6.5-14.94,15.37-14.94s15.37,6.28,15.37,14.94-6.44,14.94-15.37,14.94-15.37-6.28-15.37-14.94ZM88.69,37.42c4.33,0,7.52-3.25,7.52-7.69s-3.19-7.69-7.52-7.69-7.52,3.25-7.52,7.69,3.19,7.69,7.52,7.69Z"/>
      <path class="cls-2" d="M106.17,15.39h7.2l.27,3.19c1.95-2.38,4.71-3.63,7.85-3.63,1.08,0,2.22.16,3.3.43v7.14c-1.19-.22-2.27-.38-3.3-.38-4.71,0-7.58,2.76-7.58,7.47v14.45h-7.74V15.39Z"/>
      <path class="cls-2" d="M126.72,16.04v-.65h8.06l2.54,8.33,2.98,9.36,6.39-16.13h5.9l6.49,16.18,2.92-9.42,2.54-8.33h8.01v.65l-9.47,28.04h-7.25l-2.87-7.36-3.3-8.93-3.36,8.93-2.92,7.36h-7.14l-9.53-28.04Z"/>
      <path class="cls-2" d="M171.61,29.73c0-8.77,6.12-14.94,14.45-14.94,3.68,0,6.87,1.3,9.31,3.46l.27-2.87h6.71v28.69h-6.71l-.27-2.87c-2.49,2.17-5.74,3.46-9.31,3.46-8.61,0-14.45-6.5-14.45-14.94ZM187.09,37.42c4.38,0,7.58-3.19,7.58-7.69s-3.19-7.69-7.58-7.69-7.63,3.19-7.63,7.69,3.19,7.69,7.63,7.69Z"/>
      <path class="cls-2" d="M206.36,15.39h7.2l.27,3.19c1.95-2.38,4.71-3.63,7.85-3.63,1.08,0,2.22.16,3.3.43v7.14c-1.19-.22-2.27-.38-3.3-.38-4.71,0-7.58,2.76-7.58,7.47v14.45h-7.74V15.39Z"/>
      <path class="cls-2" d="M224.98,29.65c0-8.66,6.01-14.94,14.29-14.94,3.3,0,6.28,1.03,8.66,2.87V6.1h7.74v37.89h-6.71l-.27-2.87c-2.49,2.17-5.74,3.46-9.42,3.46-8.55,0-14.29-6.6-14.29-14.94ZM240.35,37.33c4.44,0,7.63-3.19,7.63-7.69s-3.19-7.69-7.63-7.69-7.58,3.19-7.58,7.69,3.19,7.69,7.58,7.69Z"/>
    </g>
  </g>
  <g id="Polygon_1_copy_2_Image" data-name="Polygon 1 copy 2 Image">
    <path class="cls-1" d="M45.86,23.79l-5.15-8.92h0l-6.07-10.51c-3.36-5.83-11.77-5.83-15.14,0L1.18,36.13c-3.36,5.83.84,13.11,7.57,13.11h23.72c3.39,0,6.13-2.75,6.13-6.13h0c0-3.39-2.75-6.13-6.13-6.13H14.88l12.22-21.16,8.15,14.11c1.69,2.93,5.44,3.94,8.38,2.24h0c2.93-1.69,3.94-5.44,2.24-8.38Z"/>
  </g>
</svg>